<svg width="38" height="35" viewBox="0 0 38 35" fill="none" xmlns="http://www.w3.org/2000/svg">
<path d="M13.7755 27.1077L13.9606 26.3809C13.7909 26.3377 13.6115 26.3552 13.4534 26.4304L13.7755 27.1077ZM6.37852 30.6253L5.63684 30.5139C5.59566 30.7881 5.70911 31.0626 5.93183 31.2278C6.15456 31.3929 6.45022 31.4217 6.70062 31.3026L6.37852 30.6253ZM7.38018 23.9567L8.12186 24.0681C8.16101 23.8074 8.06044 23.5453 7.85696 23.3777L7.38018 23.9567ZM18.6452 28.4583C23.0285 28.4583 27.0249 27.1074 29.9416 24.8881C32.8589 22.6684 34.7285 19.5477 34.7285 16.0417H33.2285C33.2285 18.979 31.6656 21.6916 29.0333 23.6944C26.4005 25.6976 22.7302 26.9583 18.6452 26.9583V28.4583ZM13.5904 27.8345C15.1814 28.2396 16.8811 28.4583 18.6452 28.4583V26.9583C17.0048 26.9583 15.4295 26.7549 13.9606 26.3809L13.5904 27.8345ZM6.70062 31.3026L14.0976 27.785L13.4534 26.4304L6.05643 29.948L6.70062 31.3026ZM6.6385 23.8453L5.63684 30.5139L7.1202 30.7367L8.12186 24.0681L6.6385 23.8453ZM2.56183 16.0417C2.56183 19.3651 4.24271 22.3444 6.90339 24.5356L7.85696 23.3777C5.46696 21.4095 4.06183 18.8277 4.06183 16.0417H2.56183ZM18.6452 3.625C14.2618 3.625 10.2655 4.97595 7.34872 7.19522C4.43139 9.41492 2.56183 12.5356 2.56183 16.0417H4.06183C4.06183 13.1044 5.62475 10.3918 8.257 8.38896C10.8898 6.38572 14.5601 5.125 18.6452 5.125V3.625ZM34.7285 16.0417C34.7285 12.5356 32.8589 9.41492 29.9416 7.19522C27.0249 4.97595 23.0285 3.625 18.6452 3.625V5.125C22.7302 5.125 26.4005 6.38572 29.0333 8.38896C31.6656 10.3918 33.2285 13.1044 33.2285 16.0417H34.7285Z" fill="white"/>
</svg>
