<svg width="117" height="75" viewBox="0 0 117 75" fill="none" xmlns="http://www.w3.org/2000/svg">
<path d="M31.5827 34.969L25.9757 32.0155C25.6699 31.8118 25.2621 31.8118 24.9562 32.0155L19.2473 35.1727C18.9415 35.3764 18.7376 35.6819 18.6356 35.9874L17.6162 42.098C17.4123 43.0146 16.8006 43.7275 15.985 43.9312L1.20302 48.3104C0.285521 48.616 -0.0202641 48.3105 0.48946 47.3939L24.8543 0.444101C25.0581 0.0367275 25.4659 -0.0651096 25.8737 0.0367337C26.0776 0.138577 26.1796 0.240414 26.2815 0.444101C34.641 16.8409 42.7966 32.7284 50.9522 48.0049C51.258 48.5141 51.0541 48.7178 50.5444 48.5141L34.4371 43.9312C34.0293 43.8294 33.8254 43.6257 33.7235 43.2183L32.0924 35.58C31.9904 35.2745 31.8885 35.0708 31.5827 34.969ZM26.1795 26.516L30.4612 29.0621C30.869 29.2658 30.9709 29.1639 30.9709 28.7565C29.3398 19.4888 27.7087 10.2211 25.9757 0.851499C25.9757 0.647812 25.8737 0.54595 25.6698 0.54595C25.4659 0.54595 25.2621 0.647812 25.2621 0.851499L20.1648 28.6547C19.9609 29.775 20.2668 29.9786 21.1843 29.2657C22.4076 28.2473 23.7328 27.3308 25.1601 26.516C25.4659 26.3123 25.8737 26.3123 26.1795 26.516Z" fill="white"/>
<path d="M52.1984 32.8734L50.6692 32.7716C50.1595 32.7716 49.8536 32.466 49.8536 31.9568V27.8831C49.8536 27.4757 50.1595 27.1702 50.5673 27.1702L52.0964 27.272C52.6062 27.272 52.81 27.0684 52.81 26.5591V24.0131C52.81 23.3002 53.1158 22.9946 53.8295 22.9946H57.9072C58.6209 22.9946 58.9267 23.3002 58.9267 24.0131V26.661C58.9267 27.0683 59.1306 27.3738 59.6403 27.272L63.2084 27.1702C63.7181 27.1702 64.0239 27.3739 64.0239 27.9849L64.1259 31.9568C64.1259 32.466 63.922 32.7716 63.3104 32.7716H59.7423C59.1306 32.7716 58.9267 33.0771 58.9267 33.6882V40.8172C58.9267 41.8356 59.6403 42.6504 60.5579 42.9559C61.3734 43.1596 62.087 43.1596 62.9026 43.0577C63.5142 42.9559 63.8201 43.2614 63.922 43.9743L64.0239 48.2518C64.0239 48.6591 63.8201 48.9647 63.4123 48.9647C60.7617 49.1684 58.6209 48.9646 56.8878 48.3536C54.2372 47.3351 52.81 45.1964 52.81 42.243C52.81 39.2895 52.81 36.3361 52.81 33.5863C52.9119 33.0771 52.7081 32.8734 52.1984 32.8734Z" fill="white"/>
<path d="M74.2409 28.2904C74.2409 29.1052 74.5468 29.2071 75.1585 28.596C76.5857 27.1702 78.4207 26.5591 80.3576 26.7628C80.7654 26.8646 81.0713 27.0684 81.0713 27.5776V32.5679C81.0713 32.8734 80.7654 33.0771 80.4595 32.9753C76.9934 32.1605 74.3429 34.0955 74.3429 37.66C74.4448 41.3264 74.3429 44.8909 74.3429 48.2518C74.3429 48.761 74.139 48.9647 73.6293 48.9647L68.7359 48.8628C68.3281 48.8628 68.1242 48.6591 68.1242 48.2518V27.8831C68.1242 27.3739 68.3281 27.1702 68.8379 27.1702C70.2651 27.1702 71.6923 27.1702 73.1196 27.1702C73.8332 27.272 74.2409 27.5775 74.2409 28.2904Z" fill="white"/>
<path d="M90.2499 48.2517C90.2499 48.6591 89.9441 48.9647 89.5363 48.9647H84.7449C84.3371 48.9647 84.0313 48.6591 84.0313 48.2517L83.8274 27.9849C83.8274 27.5775 84.1332 27.272 84.541 27.272H89.3324C89.7402 27.272 90.046 27.5775 90.046 27.9849L90.2499 48.2517Z" fill="white"/>
<path d="M104.972 32.7715L108.03 27.5776C108.132 27.4757 108.234 27.3739 108.336 27.3739L115.064 27.1702C115.37 27.1702 115.574 27.4757 115.37 27.6794L108.336 37.5582C108.234 37.66 108.234 37.8637 108.336 37.9655L115.88 48.3536C116.084 48.5573 115.88 48.8628 115.574 48.8628L108.948 48.6591C108.846 48.6591 108.744 48.5573 108.642 48.5573L104.768 43.0577C104.666 42.854 104.36 42.854 104.156 43.0577L100.282 48.761C100.18 48.8628 100.078 48.8628 99.9765 48.8628L93.3501 48.9647C93.0443 48.9647 92.9423 48.6591 93.0443 48.4554L100.588 37.9655C100.69 37.8637 100.69 37.66 100.588 37.5582L93.656 27.6794C93.4521 27.4757 93.656 27.1702 93.9618 27.1702L100.486 27.3739C100.588 27.3739 100.69 27.4757 100.792 27.4757L104.36 32.7715C104.564 32.9752 104.87 32.9752 104.972 32.7715Z" fill="white"/>
<path d="M73.0756 69.7317C59.7208 71.0557 44.531 67.6948 33.7249 59.0381C33.6229 58.9363 33.521 58.9363 33.521 59.0381L33.3171 59.2418V59.3437C38.6182 65.0469 45.0407 69.0188 52.4827 71.3612C65.8375 75.5367 78.9884 75.6386 91.8335 71.8704C101.722 68.9169 110.897 63.5192 116.198 54.557C116.504 54.0478 116.096 53.5386 115.587 53.5386H102.436C102.028 53.5386 101.722 53.7423 101.62 54.0478C99.8871 57.5105 97.2366 60.2602 93.8724 62.399C87.144 66.5745 80.3137 69.0188 73.0756 69.7317Z" fill="white"/>
<path d="M91.4278 20.6523C91.2239 22.6891 89.2869 24.2168 87.1461 24.0131C84.9033 23.8095 83.2721 21.9763 83.476 19.9394C83.6799 17.9025 85.6169 16.3748 87.7577 16.5785C90.0005 16.7822 91.6317 18.6154 91.4278 20.6523Z" fill="white"/>
</svg>
